<svg width="35" height="35" viewBox="0 0 35 35" fill="none" xmlns="http://www.w3.org/2000/svg">
<g clip-path="url(#clip0_1035_994)">
<path d="M13.9493 25.3339C13.6131 25.3329 13.2817 25.2539 12.9813 25.1031C12.6808 24.9523 12.4194 24.7338 12.2177 24.4648C12.0161 24.1958 11.8795 23.8837 11.819 23.553C11.7584 23.2224 11.7754 22.8821 11.8686 22.5591C11.9618 22.2361 12.1288 21.9391 12.3562 21.6916C12.5837 21.444 12.8656 21.2527 13.1796 21.1326C13.4936 21.0124 13.8312 20.9668 14.1658 20.9993C14.5004 21.0318 14.8229 21.1415 15.1079 21.3198C15.2331 21.3984 15.3778 21.4402 15.5255 21.4405C15.6793 21.4403 15.8303 21.3986 15.9624 21.3198C16.0925 21.2429 16.1991 21.1318 16.2706 20.9986C16.3421 20.8655 16.3757 20.7153 16.3679 20.5643C16.3274 20.0034 16.506 19.4486 16.8662 19.0167C17.2263 18.5847 17.7399 18.3093 18.299 18.2483C18.3791 18.2396 18.4597 18.2352 18.5403 18.235C18.9498 18.2347 19.3509 18.3511 19.6966 18.5705C19.8223 18.6496 19.968 18.6915 20.1165 18.6912C20.27 18.6913 20.4207 18.6496 20.5522 18.5705H20.5619C20.6894 18.4926 20.7935 18.3818 20.8632 18.2496C20.9328 18.1175 20.9655 17.969 20.9578 17.8198C20.917 17.2543 21.0989 16.6954 21.4647 16.2622C21.8304 15.829 22.351 15.556 22.9153 15.5014C22.9853 15.5014 23.0565 15.4917 23.1265 15.4917C23.7027 15.4917 24.2553 15.7206 24.6627 16.128C25.0701 16.5354 25.299 17.088 25.299 17.6641C25.299 18.2403 25.0701 18.7928 24.6627 19.2003C24.2553 19.6077 23.7027 19.8365 23.1265 19.8365C22.7164 19.8379 22.3144 19.7219 21.9679 19.5022C21.8428 19.4236 21.6981 19.3818 21.5503 19.3815C21.3964 19.3812 21.2454 19.423 21.1134 19.5022C20.9833 19.5793 20.8767 19.6906 20.8054 19.824C20.7342 19.9575 20.7008 20.1079 20.7091 20.259C20.7176 20.373 20.7176 20.4876 20.7091 20.6017C20.6656 21.1033 20.4493 21.5741 20.097 21.9338C19.7448 22.2935 19.2786 22.5197 18.7781 22.5738C18.6979 22.5824 18.6174 22.5868 18.5367 22.5871C18.1269 22.5872 17.7255 22.4708 17.3793 22.2515C17.2538 22.1728 17.1087 22.131 16.9605 22.1308C16.8067 22.131 16.6557 22.1727 16.5236 22.2515H16.514C16.3864 22.3293 16.2824 22.4401 16.2129 22.5723C16.1434 22.7045 16.111 22.8531 16.1193 23.0022C16.1284 23.1179 16.1284 23.2341 16.1193 23.3498C16.0744 23.8543 15.8547 24.3272 15.4982 24.6868C15.1416 25.0465 14.6706 25.2703 14.1666 25.3195C14.0944 25.3281 14.0219 25.3329 13.9493 25.3339V25.3339Z" fill="white"/>
<path d="M13.9493 19.8293C13.391 19.835 12.8519 19.6255 12.4439 19.2443C12.0359 18.8631 11.7904 18.3395 11.7583 17.782C11.7261 17.2246 11.9098 16.6762 12.2713 16.2507C12.6328 15.8251 13.1442 15.555 13.6995 15.4965C13.7836 15.4869 13.8682 15.4821 13.9529 15.4821C14.3627 15.4819 14.7641 15.5983 15.1103 15.8176C15.2355 15.8962 15.3802 15.938 15.5279 15.9383C15.6818 15.938 15.8327 15.8963 15.9648 15.8176C16.0952 15.741 16.202 15.6299 16.2736 15.4967C16.3451 15.3634 16.3786 15.2131 16.3703 15.0621C16.3296 14.4964 16.5117 13.9372 16.8777 13.504C17.2437 13.0708 17.7646 12.7979 18.3291 12.7436C18.3989 12.7368 18.469 12.7336 18.5391 12.734C19.1002 12.7236 19.6435 12.9307 20.0553 13.3119C20.467 13.6932 20.7153 14.219 20.7481 14.7792C20.7808 15.3394 20.5955 15.8905 20.231 16.3172C19.8665 16.7438 19.351 17.0128 18.7926 17.0679C18.7084 17.0776 18.6238 17.0824 18.5391 17.0824C18.1295 17.0823 17.7283 16.9664 17.3817 16.7481C17.2567 16.6682 17.1113 16.6263 16.9629 16.6274C16.809 16.6271 16.658 16.6688 16.526 16.7481C16.396 16.8251 16.2896 16.9362 16.2184 17.0694C16.1471 17.2026 16.1137 17.3528 16.1217 17.5036C16.1308 17.6193 16.1308 17.7355 16.1217 17.8512C16.0771 18.3559 15.8575 18.8291 15.5009 19.189C15.1444 19.5489 14.6732 19.7728 14.169 19.8221C14.0978 19.8221 14.0265 19.8329 13.9553 19.8329L13.9493 19.8293Z" fill="white"/>
<path d="M15.4881 13.4472L15.3988 12.9995C15.4718 12.969 15.5298 12.911 15.5603 12.838C15.5908 12.7651 15.5913 12.683 15.5617 12.6096V12.6096L15.9033 12.3815C15.9187 12.3973 15.9357 12.4114 15.954 12.4238L15.5219 13.4557C15.5087 13.4544 15.4953 13.4544 15.4821 13.4557L15.4881 13.4472ZM15.4929 11.824L15.8393 12.0533C15.824 12.09 15.8162 12.1294 15.8162 12.1691C15.8162 12.2089 15.824 12.2483 15.8393 12.285V12.285L15.4966 12.5119C15.4446 12.4599 15.3755 12.4286 15.3022 12.424C15.2289 12.4193 15.1564 12.4416 15.0983 12.4865L14.9172 12.3236C14.9468 12.277 14.9624 12.2231 14.9624 12.1679C14.9624 12.1128 14.9468 12.0588 14.9172 12.0122L15.0959 11.8505C15.1483 11.8904 15.2123 11.912 15.2781 11.9121C15.3182 11.9123 15.3579 11.9043 15.3948 11.8888C15.4317 11.8732 15.4651 11.8503 15.4929 11.8215V11.824ZM14.6143 11.0757C14.6314 11.0684 14.6479 11.06 14.6638 11.0503L15.0343 11.4365C15.0051 11.4778 14.9867 11.5257 14.9808 11.5759C14.9748 11.626 14.9816 11.6769 15.0005 11.7238V11.7238C15.0061 11.738 15.013 11.7518 15.021 11.7648L14.8448 11.9229C14.795 11.8844 14.7343 11.8627 14.6714 11.861C14.6085 11.8593 14.5467 11.8776 14.4948 11.9133L14.1847 11.6043C14.221 11.5519 14.2395 11.4892 14.2373 11.4255C14.2352 11.3618 14.2125 11.3004 14.1726 11.2507L14.3488 11.0503C14.3886 11.0743 14.4335 11.0885 14.4798 11.0919C14.5262 11.0952 14.5727 11.0876 14.6155 11.0697L14.6143 11.0757ZM15.5569 11.7214C15.5878 11.6479 15.5882 11.5652 15.5581 11.4914C15.528 11.4176 15.4698 11.3588 15.3964 11.3279H15.3891L15.4772 10.8633C15.4963 10.8631 15.5153 10.861 15.534 10.8572L15.954 11.9109C15.9351 11.9225 15.9177 11.9363 15.9021 11.9519L15.5569 11.7214ZM12.5083 10.8934C12.5445 10.879 12.6555 10.8186 12.6736 10.7317L13.0852 10.8102C13.0827 10.871 13.0996 10.931 13.1334 10.9815L12.7641 11.3521C12.713 11.3172 12.6522 11.2991 12.5903 11.3002L12.5083 10.8934ZM14.7434 10.9647C14.783 10.9101 14.803 10.8437 14.8002 10.7764L15.2045 10.681C15.219 10.7149 15.2399 10.7456 15.266 10.7715C15.2954 10.8003 15.3303 10.8229 15.3686 10.8379L15.2805 11.3026C15.2391 11.3016 15.198 11.3094 15.1598 11.3255C15.1427 11.3327 15.1262 11.3412 15.1103 11.3509L14.7434 10.9647ZM14.0422 10.2405L14.2836 10.5784C14.2342 10.6306 14.2051 10.6987 14.2015 10.7704C14.198 10.8421 14.2203 10.9127 14.2643 10.9695L14.0893 11.1686C14.043 11.1402 13.9897 11.1252 13.9354 11.1252C13.8811 11.1252 13.8279 11.1402 13.7816 11.1686L13.6234 10.9936C13.6685 10.9346 13.69 10.861 13.684 10.787C13.678 10.713 13.6448 10.6439 13.5909 10.5929L13.8214 10.2465C13.8506 10.2609 13.883 10.2676 13.9155 10.2659C13.9571 10.2661 13.9982 10.2574 14.0362 10.2405H14.0422ZM12.699 10.6207C12.7008 10.6022 12.7008 10.5836 12.699 10.5652L13.6778 10.1415C13.694 10.1636 13.7126 10.1839 13.7333 10.2019L13.5064 10.5434C13.47 10.5284 13.431 10.5207 13.3917 10.5208C13.3523 10.5209 13.3134 10.5287 13.2771 10.5438C13.2408 10.559 13.2078 10.5811 13.18 10.609C13.1523 10.6369 13.1303 10.67 13.1153 10.7064L12.699 10.6207ZM14.1376 10.1802C14.1519 10.1636 14.1648 10.1458 14.1762 10.1271L15.1876 10.5072C15.1852 10.5289 15.1852 10.5508 15.1876 10.5724L14.7821 10.6678C14.7505 10.5959 14.6919 10.5392 14.619 10.5101C14.5461 10.481 14.4647 10.4817 14.3922 10.5121H14.3814L14.1376 10.1802ZM13.9143 9.66603C13.8695 9.66677 13.8254 9.67758 13.7853 9.69766C13.7452 9.71774 13.7101 9.74657 13.6826 9.78202C13.6552 9.81748 13.636 9.85865 13.6266 9.90249C13.6172 9.94634 13.6178 9.99174 13.6283 10.0353L12.6531 10.4578C12.6422 10.437 12.6279 10.4183 12.6109 10.4022C12.554 10.3485 12.4784 10.319 12.4002 10.3201C12.322 10.3212 12.2472 10.3528 12.1919 10.4081C12.1366 10.4635 12.105 10.5382 12.1039 10.6164C12.1028 10.6946 12.1323 10.7702 12.186 10.8271L12.2162 10.8464C11.9768 11.1624 11.829 11.5382 11.789 11.9326C11.7817 12.0062 11.7781 12.081 11.7781 12.1559C11.7781 12.732 12.007 13.2846 12.4144 13.692C12.8218 14.0994 13.3744 14.3283 13.9505 14.3283C14.0247 14.3285 14.0989 14.3244 14.1726 14.3162C14.5795 14.2764 14.9661 14.1191 15.2853 13.8636C15.2853 13.8636 15.2926 13.8769 15.2974 13.8817C15.3467 13.9228 15.4096 13.944 15.4737 13.9411C15.5378 13.9382 15.5985 13.9114 15.6438 13.8661C15.6892 13.8207 15.716 13.76 15.7189 13.6959C15.7218 13.6318 15.7006 13.5689 15.6595 13.5197C15.6489 13.5087 15.6372 13.499 15.6245 13.4907L16.0553 12.4528C16.0938 12.4613 16.1335 12.4622 16.1723 12.4554C16.2111 12.4486 16.2482 12.4342 16.2814 12.4131C16.3146 12.392 16.3434 12.3645 16.366 12.3323C16.3886 12.3001 16.4046 12.2637 16.4132 12.2253C16.4217 12.1868 16.4227 12.1471 16.4159 12.1083C16.4091 12.0695 16.3947 12.0324 16.3736 11.9992C16.3524 11.966 16.325 11.9372 16.2927 11.9146C16.2605 11.892 16.2241 11.876 16.1857 11.8674C16.1621 11.8614 16.1376 11.8589 16.1133 11.8602C16.0948 11.8584 16.0762 11.8584 16.0578 11.8602L15.6353 10.8065C15.6689 10.7858 15.6981 10.7586 15.7212 10.7266C15.7443 10.6945 15.7609 10.6583 15.77 10.6198C15.779 10.5814 15.7805 10.5415 15.7741 10.5025C15.7678 10.4635 15.7539 10.4262 15.7331 10.3926C15.7123 10.359 15.6852 10.3298 15.6531 10.3067C15.6211 10.2836 15.5848 10.267 15.5464 10.258C15.5079 10.2489 15.4681 10.2475 15.4291 10.2538C15.3901 10.2601 15.3527 10.2741 15.3191 10.2948C15.2777 10.3201 15.2433 10.3554 15.219 10.3974L14.216 10.0172C14.2301 9.93885 14.2127 9.85807 14.1675 9.7925C14.1222 9.72694 14.0529 9.68191 13.9747 9.66724H13.9252L13.9143 9.66603Z" fill="white"/>
<path d="M17.5 35C13.1755 34.9945 9.00712 33.383 5.80352 30.478C2.59991 27.5731 0.589403 23.5819 0.161989 19.2786C-0.265424 14.9752 0.92072 10.6665 3.49034 7.18816C6.05996 3.70986 9.82989 1.30991 14.0688 0.453863C18.3078 -0.402189 22.7136 0.346675 26.4317 2.55519C30.1498 4.76371 32.915 8.27445 34.1911 12.4064C35.4672 16.5384 35.1632 20.997 33.3379 24.9175C31.5127 28.838 28.2964 31.9408 24.3129 33.6241C22.1575 34.5361 19.8404 35.004 17.5 35V35ZM17.5 5.18966C14.6504 5.18909 11.8888 6.17661 9.68578 7.98397C7.48271 9.79132 5.97451 12.3067 5.41817 15.1014C4.86182 17.8961 5.29176 20.7973 6.63471 23.3105C7.97767 25.8238 10.1505 27.7936 12.7831 28.8844C15.4156 29.9751 18.3449 30.1193 21.0719 29.2923C23.7988 28.4654 26.1546 26.7184 27.7379 24.3492C29.3211 21.9799 30.0339 19.135 29.7546 16.2992C29.4754 13.4633 28.2215 10.812 26.2066 8.79707C25.0659 7.64997 23.7091 6.7405 22.2146 6.12128C20.7201 5.50207 19.1177 5.18542 17.5 5.18966V5.18966Z" fill="white"/>
</g>
<defs>
<clipPath id="clip0_1035_994">
<rect width="35" height="35" fill="white"/>
</clipPath>
</defs>
</svg>
